<svg xmlns="http://www.w3.org/2000/svg" width="375" viewBox="0 0 375 375" height="375" version="1.0"><g><g><g><path d="M 15.703125 -36.25 C 17.628906 -36.25 19.515625 -35.96875 21.359375 -35.40625 C 23.203125 -34.84375 24.570312 -34.289062 25.46875 -33.75 L 26.75 -32.890625 L 23.484375 -26.40625 C 23.222656 -26.582031 22.859375 -26.804688 22.390625 -27.078125 C 21.929688 -27.347656 21.066406 -27.710938 19.796875 -28.171875 C 18.535156 -28.640625 17.359375 -28.875 16.265625 -28.875 C 14.910156 -28.875 13.867188 -28.582031 13.140625 -28 C 12.410156 -27.425781 12.046875 -26.648438 12.046875 -25.671875 C 12.046875 -25.179688 12.21875 -24.726562 12.5625 -24.3125 C 12.90625 -23.894531 13.492188 -23.445312 14.328125 -22.96875 C 15.160156 -22.5 15.894531 -22.117188 16.53125 -21.828125 C 17.164062 -21.546875 18.144531 -21.117188 19.46875 -20.546875 C 21.769531 -19.566406 23.734375 -18.234375 25.359375 -16.546875 C 26.984375 -14.867188 27.796875 -12.960938 27.796875 -10.828125 C 27.796875 -8.785156 27.425781 -7 26.6875 -5.46875 C 25.957031 -3.945312 24.953125 -2.753906 23.671875 -1.890625 C 22.390625 -1.035156 20.972656 -0.398438 19.421875 0.015625 C 17.867188 0.429688 16.1875 0.640625 14.375 0.640625 C 12.820312 0.640625 11.296875 0.484375 9.796875 0.171875 C 8.296875 -0.140625 7.039062 -0.53125 6.03125 -1 C 5.03125 -1.476562 4.125 -1.945312 3.3125 -2.40625 C 2.507812 -2.875 1.921875 -3.265625 1.546875 -3.578125 L 1 -4.0625 L 5.046875 -10.875 C 5.390625 -10.582031 5.863281 -10.210938 6.46875 -9.765625 C 7.070312 -9.328125 8.144531 -8.734375 9.6875 -7.984375 C 11.226562 -7.234375 12.585938 -6.859375 13.765625 -6.859375 C 17.191406 -6.859375 18.90625 -8.023438 18.90625 -10.359375 C 18.90625 -10.847656 18.78125 -11.300781 18.53125 -11.71875 C 18.289062 -12.132812 17.859375 -12.550781 17.234375 -12.96875 C 16.617188 -13.382812 16.070312 -13.710938 15.59375 -13.953125 C 15.125 -14.203125 14.347656 -14.578125 13.265625 -15.078125 C 12.191406 -15.585938 11.394531 -15.972656 10.875 -16.234375 C 8.71875 -17.296875 7.046875 -18.625 5.859375 -20.21875 C 4.679688 -21.8125 4.09375 -23.53125 4.09375 -25.375 C 4.09375 -28.570312 5.269531 -31.179688 7.625 -33.203125 C 9.988281 -35.234375 12.679688 -36.25 15.703125 -36.25 Z M 15.703125 -36.25" transform="translate(37.5 199.5)"/></g></g></g><g><g><g><path d="M 4.09375 -2.734375 C 2.03125 -4.992188 1 -7.765625 1 -11.046875 C 1 -14.328125 2.03125 -17.101562 4.09375 -19.375 C 6.164062 -21.644531 8.800781 -22.78125 12 -22.78125 C 14.9375 -22.78125 17.351562 -21.863281 19.25 -20.03125 L 19.25 -22.140625 L 26.890625 -22.140625 L 26.890625 0 L 19.328125 0 L 19.328125 -2.5 L 19.25 -2.5 C 17.351562 -0.40625 14.9375 0.640625 12 0.640625 C 8.800781 0.640625 6.164062 -0.484375 4.09375 -2.734375 Z M 10.59375 -14.796875 C 9.601562 -13.816406 9.109375 -12.566406 9.109375 -11.046875 C 9.109375 -9.523438 9.582031 -8.28125 10.53125 -7.3125 C 11.476562 -6.351562 12.726562 -5.875 14.28125 -5.875 C 15.78125 -5.875 17.007812 -6.359375 17.96875 -7.328125 C 18.9375 -8.304688 19.421875 -9.546875 19.421875 -11.046875 C 19.421875 -12.566406 18.921875 -13.816406 17.921875 -14.796875 C 16.929688 -15.773438 15.71875 -16.265625 14.28125 -16.265625 C 12.8125 -16.265625 11.582031 -15.773438 10.59375 -14.796875 Z M 10.59375 -14.796875" transform="translate(64.338 199.5)"/></g></g></g><g><g><g><path d="M 2.59375 0 L 2.59375 -37.109375 L 10.234375 -37.109375 L 10.234375 0 Z M 2.59375 0" transform="translate(91.65 199.5)"/></g></g></g><g><g><g><path d="M 9.796875 -22.140625 L 9.796875 -11.609375 C 9.796875 -9.421875 10.125 -7.863281 10.78125 -6.9375 C 11.445312 -6.019531 12.570312 -5.5625 14.15625 -5.5625 C 15.738281 -5.5625 16.859375 -6.019531 17.515625 -6.9375 C 18.179688 -7.863281 18.515625 -9.421875 18.515625 -11.609375 L 18.515625 -22.140625 L 26.15625 -22.140625 L 26.15625 -9.75 C 26.15625 -6.070312 25.195312 -3.421875 23.28125 -1.796875 C 21.363281 -0.171875 18.316406 0.640625 14.140625 0.640625 C 9.972656 0.640625 6.929688 -0.171875 5.015625 -1.796875 C 3.109375 -3.421875 2.15625 -6.070312 2.15625 -9.75 L 2.15625 -22.140625 Z M 9.796875 -22.140625" transform="translate(102.307 199.5)"/></g></g></g><g><g><g><path d="M 4.09375 -2.734375 C 2.03125 -4.992188 1 -7.765625 1 -11.046875 C 1 -14.328125 2.03125 -17.101562 4.09375 -19.375 C 6.164062 -21.644531 8.800781 -22.78125 12 -22.78125 C 14.9375 -22.78125 17.351562 -21.863281 19.25 -20.03125 L 19.25 -37.109375 L 26.890625 -37.109375 L 26.890625 0 L 19.328125 0 L 19.328125 -2.5 L 19.25 -2.5 C 17.351562 -0.40625 14.9375 0.640625 12 0.640625 C 8.800781 0.640625 6.164062 -0.484375 4.09375 -2.734375 Z M 10.59375 -14.796875 C 9.601562 -13.816406 9.109375 -12.566406 9.109375 -11.046875 C 9.109375 -9.523438 9.582031 -8.28125 10.53125 -7.3125 C 11.476562 -6.351562 12.726562 -5.875 14.28125 -5.875 C 15.78125 -5.875 17.007812 -6.359375 17.96875 -7.328125 C 18.9375 -8.304688 19.421875 -9.546875 19.421875 -11.046875 C 19.421875 -12.566406 18.921875 -13.816406 17.921875 -14.796875 C 16.929688 -15.773438 15.71875 -16.265625 14.28125 -16.265625 C 12.8125 -16.265625 11.582031 -15.773438 10.59375 -14.796875 Z M 10.59375 -14.796875" transform="translate(128.455 199.5)"/></g></g></g><g><g><g><path d="M 19.375 -22.140625 L 28.1875 -22.140625 L 10.78125 11.21875 L 1.984375 11.21875 L 9.625 -3.453125 L -0.859375 -22.140625 L 7.9375 -22.140625 L 14.109375 -10.78125 Z M 19.375 -22.140625" transform="translate(165.389 199.5)"/></g></g></g><g><g><g><path d="M 23.171875 -35.609375 L 23.171875 -28.484375 L 10.703125 -28.484375 L 10.703125 -21.40625 L 22.21875 -21.40625 L 22.21875 -14.28125 L 10.703125 -14.28125 L 10.703125 0 L 2.59375 0 L 2.59375 -35.609375 Z M 23.171875 -35.609375" transform="translate(200.165 199.5)"/></g></g></g><g><g><g><path d="M 3.3125 -34.46875 C 4.207031 -35.363281 5.273438 -35.8125 6.515625 -35.8125 C 7.753906 -35.8125 8.816406 -35.363281 9.703125 -34.46875 C 10.597656 -33.582031 11.046875 -32.519531 11.046875 -31.28125 C 11.046875 -30.050781 10.597656 -28.988281 9.703125 -28.09375 C 8.816406 -27.195312 7.753906 -26.75 6.515625 -26.75 C 5.273438 -26.75 4.207031 -27.195312 3.3125 -28.09375 C 2.425781 -28.988281 1.984375 -30.050781 1.984375 -31.28125 C 1.984375 -32.519531 2.425781 -33.582031 3.3125 -34.46875 Z M 2.59375 -22.140625 L 2.59375 0 L 10.234375 0 L 10.234375 -22.140625 Z M 2.59375 -22.140625" transform="translate(222.472 199.5)"/></g></g></g><g><g><g><path d="M 1.59375 5.4375 L 7.859375 2.375 C 9.003906 4.269531 11.003906 5.21875 13.859375 5.21875 C 15.179688 5.21875 16.410156 4.789062 17.546875 3.9375 C 18.679688 3.09375 19.25 1.796875 19.25 0.046875 L 19.25 -1.59375 C 17.894531 -0.101562 15.476562 0.640625 12 0.640625 C 8.800781 0.640625 6.164062 -0.484375 4.09375 -2.734375 C 2.03125 -4.992188 1 -7.765625 1 -11.046875 C 1 -14.328125 2.03125 -17.101562 4.09375 -19.375 C 6.164062 -21.644531 8.800781 -22.78125 12 -22.78125 C 14.84375 -22.78125 17.21875 -21.90625 19.125 -20.15625 L 19.25 -20.15625 L 19.25 -22.140625 L 26.890625 -22.140625 L 26.890625 0.609375 C 26.890625 4.203125 25.691406 6.976562 23.296875 8.9375 C 20.910156 10.894531 17.765625 11.875 13.859375 11.875 C 7.523438 11.875 3.4375 9.726562 1.59375 5.4375 Z M 10.59375 -14.796875 C 9.601562 -13.816406 9.109375 -12.566406 9.109375 -11.046875 C 9.109375 -9.523438 9.582031 -8.28125 10.53125 -7.3125 C 11.476562 -6.351562 12.726562 -5.875 14.28125 -5.875 C 15.78125 -5.875 17.007812 -6.359375 17.96875 -7.328125 C 18.9375 -8.304688 19.421875 -9.546875 19.421875 -11.046875 C 19.421875 -12.566406 18.921875 -13.816406 17.921875 -14.796875 C 16.929688 -15.773438 15.71875 -16.265625 14.28125 -16.265625 C 12.8125 -16.265625 11.582031 -15.773438 10.59375 -14.796875 Z M 10.59375 -14.796875" transform="translate(233.345 199.5)"/></g></g></g><g><g><g><path d="M 9.796875 -22.140625 L 9.796875 -11.609375 C 9.796875 -9.421875 10.125 -7.863281 10.78125 -6.9375 C 11.445312 -6.019531 12.570312 -5.5625 14.15625 -5.5625 C 15.738281 -5.5625 16.859375 -6.019531 17.515625 -6.9375 C 18.179688 -7.863281 18.515625 -9.421875 18.515625 -11.609375 L 18.515625 -22.140625 L 26.15625 -22.140625 L 26.15625 -9.75 C 26.15625 -6.070312 25.195312 -3.421875 23.28125 -1.796875 C 21.363281 -0.171875 18.316406 0.640625 14.140625 0.640625 C 9.972656 0.640625 6.929688 -0.171875 5.015625 -1.796875 C 3.109375 -3.421875 2.15625 -6.070312 2.15625 -9.75 L 2.15625 -22.140625 Z M 9.796875 -22.140625" transform="translate(260.658 199.5)"/></g></g></g><g><g><g><path d="M 2.59375 0 L 2.59375 -22.140625 L 10.234375 -22.140625 L 10.234375 -18.953125 L 10.3125 -18.953125 C 10.375 -19.066406 10.46875 -19.207031 10.59375 -19.375 C 10.71875 -19.550781 10.992188 -19.851562 11.421875 -20.28125 C 11.859375 -20.71875 12.320312 -21.109375 12.8125 -21.453125 C 13.300781 -21.796875 13.929688 -22.101562 14.703125 -22.375 C 15.484375 -22.644531 16.28125 -22.78125 17.09375 -22.78125 C 17.925781 -22.78125 18.742188 -22.664062 19.546875 -22.4375 C 20.359375 -22.207031 20.945312 -21.976562 21.3125 -21.75 L 21.921875 -21.40625 L 18.734375 -14.9375 C 17.785156 -15.738281 16.460938 -16.140625 14.765625 -16.140625 C 13.835938 -16.140625 13.039062 -15.9375 12.375 -15.53125 C 11.71875 -15.132812 11.253906 -14.644531 10.984375 -14.0625 C 10.710938 -13.488281 10.519531 -13 10.40625 -12.59375 C 10.289062 -12.195312 10.234375 -11.882812 10.234375 -11.65625 L 10.234375 0 Z M 2.59375 0" transform="translate(286.805 199.5)"/></g></g></g><g><g><g><path d="M 4.09375 -2.734375 C 2.03125 -4.992188 1 -7.765625 1 -11.046875 C 1 -14.328125 2.03125 -17.101562 4.09375 -19.375 C 6.164062 -21.644531 8.800781 -22.78125 12 -22.78125 C 14.9375 -22.78125 17.351562 -21.863281 19.25 -20.03125 L 19.25 -22.140625 L 26.890625 -22.140625 L 26.890625 0 L 19.328125 0 L 19.328125 -2.5 L 19.25 -2.5 C 17.351562 -0.40625 14.9375 0.640625 12 0.640625 C 8.800781 0.640625 6.164062 -0.484375 4.09375 -2.734375 Z M 10.59375 -14.796875 C 9.601562 -13.816406 9.109375 -12.566406 9.109375 -11.046875 C 9.109375 -9.523438 9.582031 -8.28125 10.53125 -7.3125 C 11.476562 -6.351562 12.726562 -5.875 14.28125 -5.875 C 15.78125 -5.875 17.007812 -6.359375 17.96875 -7.328125 C 18.9375 -8.304688 19.421875 -9.546875 19.421875 -11.046875 C 19.421875 -12.566406 18.921875 -13.816406 17.921875 -14.796875 C 16.929688 -15.773438 15.71875 -16.265625 14.28125 -16.265625 C 12.8125 -16.265625 11.582031 -15.773438 10.59375 -14.796875 Z M 10.59375 -14.796875" transform="translate(306.135 199.5)"/></g></g></g></svg>