<svg xmlns="http://www.w3.org/2000/svg" width="1080" viewBox="0 0 1080 1284" height="1284" version="1.0"><g><g><g><path d="M 53.515625 -123.484375 C 60.078125 -123.484375 66.492188 -122.523438 72.765625 -120.609375 C 79.035156 -118.703125 83.691406 -116.816406 86.734375 -114.953125 L 91.140625 -112.015625 L 79.96875 -89.96875 C 79.082031 -90.550781 77.851562 -91.304688 76.28125 -92.234375 C 74.71875 -93.171875 71.78125 -94.421875 67.46875 -95.984375 C 63.15625 -97.554688 59.140625 -98.34375 55.421875 -98.34375 C 50.816406 -98.34375 47.265625 -97.363281 44.765625 -95.40625 C 42.265625 -93.445312 41.015625 -90.800781 41.015625 -87.46875 C 41.015625 -85.800781 41.601562 -84.253906 42.78125 -82.828125 C 43.957031 -81.410156 45.960938 -79.894531 48.796875 -78.28125 C 51.640625 -76.664062 54.140625 -75.363281 56.296875 -74.375 C 58.453125 -73.394531 61.785156 -71.925781 66.296875 -69.96875 C 74.140625 -66.632812 80.828125 -62.101562 86.359375 -56.375 C 91.898438 -50.644531 94.671875 -44.148438 94.671875 -36.890625 C 94.671875 -29.929688 93.421875 -23.851562 90.921875 -18.65625 C 88.421875 -13.46875 84.988281 -9.40625 80.625 -6.46875 C 76.269531 -3.53125 71.445312 -1.351562 66.15625 0.0625 C 60.863281 1.488281 55.128906 2.203125 48.953125 2.203125 C 43.660156 2.203125 38.460938 1.660156 33.359375 0.578125 C 28.265625 -0.492188 24.003906 -1.835938 20.578125 -3.453125 C 17.148438 -5.066406 14.0625 -6.65625 11.3125 -8.21875 C 8.570312 -9.789062 6.566406 -11.117188 5.296875 -12.203125 L 3.375 -13.8125 L 17.203125 -37.046875 C 18.378906 -36.066406 19.992188 -34.816406 22.046875 -33.296875 C 24.109375 -31.773438 27.757812 -29.738281 33 -27.1875 C 38.238281 -24.644531 42.867188 -23.375 46.890625 -23.375 C 58.554688 -23.375 64.390625 -27.34375 64.390625 -35.28125 C 64.390625 -36.945312 63.972656 -38.488281 63.140625 -39.90625 C 62.304688 -41.332031 60.832031 -42.753906 58.71875 -44.171875 C 56.613281 -45.597656 54.753906 -46.722656 53.140625 -47.546875 C 51.523438 -48.378906 48.878906 -49.65625 45.203125 -51.375 C 41.523438 -53.09375 38.804688 -54.390625 37.046875 -55.265625 C 29.691406 -58.898438 24.003906 -63.4375 19.984375 -68.875 C 15.972656 -74.3125 13.96875 -80.164062 13.96875 -86.4375 C 13.96875 -97.3125 17.984375 -106.203125 26.015625 -113.109375 C 34.054688 -120.023438 43.222656 -123.484375 53.515625 -123.484375 Z M 53.515625 -123.484375" transform="translate(23.147 681.75)"/></g></g></g><g><g><g><path d="M 13.953125 -9.328125 C 6.898438 -17.023438 3.375 -26.457031 3.375 -37.625 C 3.375 -48.800781 6.898438 -58.257812 13.953125 -66 C 21.015625 -73.738281 29.984375 -77.609375 40.859375 -77.609375 C 50.859375 -77.609375 59.09375 -74.472656 65.5625 -68.203125 L 65.5625 -75.40625 L 91.578125 -75.40625 L 91.578125 0 L 65.859375 0 L 65.859375 -8.53125 L 65.5625 -8.53125 C 59.09375 -1.375 50.859375 2.203125 40.859375 2.203125 C 29.984375 2.203125 21.015625 -1.640625 13.953125 -9.328125 Z M 36.078125 -50.421875 C 32.703125 -47.085938 31.015625 -42.820312 31.015625 -37.625 C 31.015625 -32.4375 32.628906 -28.195312 35.859375 -24.90625 C 39.097656 -21.625 43.363281 -19.984375 48.65625 -19.984375 C 53.75 -19.984375 57.9375 -21.648438 61.21875 -24.984375 C 64.507812 -28.316406 66.15625 -32.53125 66.15625 -37.625 C 66.15625 -42.820312 64.460938 -47.085938 61.078125 -50.421875 C 57.691406 -53.753906 53.550781 -55.421875 48.65625 -55.421875 C 43.65625 -55.421875 39.460938 -53.753906 36.078125 -50.421875 Z M 36.078125 -50.421875" transform="translate(114.581 681.75)"/></g></g></g><g><g><g><path d="M 8.8125 0 L 8.8125 -126.421875 L 34.84375 -126.421875 L 34.84375 0 Z M 8.8125 0" transform="translate(207.632 681.75)"/></g></g></g><g><g><g><path d="M 33.375 -75.40625 L 33.375 -39.546875 C 33.375 -32.097656 34.5 -26.804688 36.75 -23.671875 C 39 -20.535156 42.816406 -18.96875 48.203125 -18.96875 C 53.597656 -18.96875 57.421875 -20.535156 59.671875 -23.671875 C 61.929688 -26.804688 63.0625 -32.097656 63.0625 -39.546875 L 63.0625 -75.40625 L 89.078125 -75.40625 L 89.078125 -33.21875 C 89.078125 -20.675781 85.816406 -11.632812 79.296875 -6.09375 C 72.785156 -0.5625 62.425781 2.203125 48.21875 2.203125 C 34.007812 2.203125 23.644531 -0.5625 17.125 -6.09375 C 10.601562 -11.632812 7.34375 -20.675781 7.34375 -33.21875 L 7.34375 -75.40625 Z M 33.375 -75.40625" transform="translate(243.94 681.75)"/></g></g></g><g><g><g><path d="M 13.953125 -9.328125 C 6.898438 -17.023438 3.375 -26.457031 3.375 -37.625 C 3.375 -48.800781 6.898438 -58.257812 13.953125 -66 C 21.015625 -73.738281 29.984375 -77.609375 40.859375 -77.609375 C 50.859375 -77.609375 59.09375 -74.472656 65.5625 -68.203125 L 65.5625 -126.421875 L 91.578125 -126.421875 L 91.578125 0 L 65.859375 0 L 65.859375 -8.53125 L 65.5625 -8.53125 C 59.09375 -1.375 50.859375 2.203125 40.859375 2.203125 C 29.984375 2.203125 21.015625 -1.640625 13.953125 -9.328125 Z M 36.078125 -50.421875 C 32.703125 -47.085938 31.015625 -42.820312 31.015625 -37.625 C 31.015625 -32.4375 32.628906 -28.195312 35.859375 -24.90625 C 39.097656 -21.625 43.363281 -19.984375 48.65625 -19.984375 C 53.75 -19.984375 57.9375 -21.648438 61.21875 -24.984375 C 64.507812 -28.316406 66.15625 -32.53125 66.15625 -37.625 C 66.15625 -42.820312 64.460938 -47.085938 61.078125 -50.421875 C 57.691406 -53.753906 53.550781 -55.421875 48.65625 -55.421875 C 43.65625 -55.421875 39.460938 -53.753906 36.078125 -50.421875 Z M 36.078125 -50.421875" transform="translate(333.023 681.75)"/></g></g></g><g><g><g><path d="M 66 -75.40625 L 95.984375 -75.40625 L 36.75 38.21875 L 6.765625 38.21875 L 32.78125 -11.765625 L -2.9375 -75.40625 L 27.046875 -75.40625 L 48.0625 -36.75 Z M 66 -75.40625" transform="translate(458.855 681.75)"/></g></g></g><g><g><g><path d="M 78.9375 -121.28125 L 78.9375 -97.015625 L 36.453125 -97.015625 L 36.453125 -72.90625 L 75.703125 -72.90625 L 75.703125 -48.65625 L 36.453125 -48.65625 L 36.453125 0 L 8.8125 0 L 8.8125 -121.28125 Z M 78.9375 -121.28125" transform="translate(577.337 681.75)"/></g></g></g><g><g><g><path d="M 11.3125 -117.453125 C 14.351562 -120.492188 17.976562 -122.015625 22.1875 -122.015625 C 26.40625 -122.015625 30.03125 -120.492188 33.0625 -117.453125 C 36.101562 -114.410156 37.625 -110.78125 37.625 -106.5625 C 37.625 -102.351562 36.101562 -98.726562 33.0625 -95.6875 C 30.03125 -92.65625 26.40625 -91.140625 22.1875 -91.140625 C 17.976562 -91.140625 14.351562 -92.65625 11.3125 -95.6875 C 8.28125 -98.726562 6.765625 -102.351562 6.765625 -106.5625 C 6.765625 -110.78125 8.28125 -114.410156 11.3125 -117.453125 Z M 8.8125 -75.40625 L 8.8125 0 L 34.84375 0 L 34.84375 -75.40625 Z M 8.8125 -75.40625" transform="translate(653.336 681.75)"/></g></g></g><g><g><g><path d="M 5.4375 18.515625 L 26.75 8.078125 C 30.675781 14.546875 37.488281 17.78125 47.1875 17.78125 C 51.695312 17.78125 55.882812 16.332031 59.75 13.4375 C 63.625 10.550781 65.5625 6.117188 65.5625 0.140625 L 65.5625 -5.4375 C 60.957031 -0.34375 52.722656 2.203125 40.859375 2.203125 C 29.984375 2.203125 21.015625 -1.640625 13.953125 -9.328125 C 6.898438 -17.023438 3.375 -26.457031 3.375 -37.625 C 3.375 -48.800781 6.898438 -58.257812 13.953125 -66 C 21.015625 -73.738281 29.984375 -77.609375 40.859375 -77.609375 C 50.566406 -77.609375 58.65625 -74.625 65.125 -68.65625 L 65.5625 -68.65625 L 65.5625 -75.40625 L 91.578125 -75.40625 L 91.578125 2.0625 C 91.578125 14.3125 87.507812 23.765625 79.375 30.421875 C 71.238281 37.085938 60.507812 40.421875 47.1875 40.421875 C 25.625 40.421875 11.707031 33.117188 5.4375 18.515625 Z M 36.078125 -50.421875 C 32.703125 -47.085938 31.015625 -42.820312 31.015625 -37.625 C 31.015625 -32.4375 32.628906 -28.195312 35.859375 -24.90625 C 39.097656 -21.625 43.363281 -19.984375 48.65625 -19.984375 C 53.75 -19.984375 57.9375 -21.648438 61.21875 -24.984375 C 64.507812 -28.316406 66.15625 -32.53125 66.15625 -37.625 C 66.15625 -42.820312 64.460938 -47.085938 61.078125 -50.421875 C 57.691406 -53.753906 53.550781 -55.421875 48.65625 -55.421875 C 43.65625 -55.421875 39.460938 -53.753906 36.078125 -50.421875 Z M 36.078125 -50.421875" transform="translate(690.38 681.75)"/></g></g></g><g><g><g><path d="M 33.375 -75.40625 L 33.375 -39.546875 C 33.375 -32.097656 34.5 -26.804688 36.75 -23.671875 C 39 -20.535156 42.816406 -18.96875 48.203125 -18.96875 C 53.597656 -18.96875 57.421875 -20.535156 59.671875 -23.671875 C 61.929688 -26.804688 63.0625 -32.097656 63.0625 -39.546875 L 63.0625 -75.40625 L 89.078125 -75.40625 L 89.078125 -33.21875 C 89.078125 -20.675781 85.816406 -11.632812 79.296875 -6.09375 C 72.785156 -0.5625 62.425781 2.203125 48.21875 2.203125 C 34.007812 2.203125 23.644531 -0.5625 17.125 -6.09375 C 10.601562 -11.632812 7.34375 -20.675781 7.34375 -33.21875 L 7.34375 -75.40625 Z M 33.375 -75.40625" transform="translate(783.43 681.75)"/></g></g></g><g><g><g><path d="M 8.8125 0 L 8.8125 -75.40625 L 34.84375 -75.40625 L 34.84375 -64.53125 L 35.140625 -64.53125 C 35.328125 -64.925781 35.640625 -65.414062 36.078125 -66 C 36.523438 -66.59375 37.484375 -67.625 38.953125 -69.09375 C 40.421875 -70.5625 41.988281 -71.882812 43.65625 -73.0625 C 45.320312 -74.238281 47.476562 -75.289062 50.125 -76.21875 C 52.769531 -77.144531 55.46875 -77.609375 58.21875 -77.609375 C 61.050781 -77.609375 63.835938 -77.21875 66.578125 -76.4375 C 69.328125 -75.65625 71.34375 -74.875 72.625 -74.09375 L 74.671875 -72.90625 L 63.796875 -50.859375 C 60.566406 -53.609375 56.0625 -54.984375 50.28125 -54.984375 C 47.132812 -54.984375 44.4375 -54.296875 42.1875 -52.921875 C 39.9375 -51.546875 38.34375 -49.878906 37.40625 -47.921875 C 36.476562 -45.960938 35.816406 -44.296875 35.421875 -42.921875 C 35.035156 -41.546875 34.84375 -40.46875 34.84375 -39.6875 L 34.84375 0 Z M 8.8125 0" transform="translate(872.513 681.75)"/></g></g></g><g><g><g><path d="M 13.953125 -9.328125 C 6.898438 -17.023438 3.375 -26.457031 3.375 -37.625 C 3.375 -48.800781 6.898438 -58.257812 13.953125 -66 C 21.015625 -73.738281 29.984375 -77.609375 40.859375 -77.609375 C 50.859375 -77.609375 59.09375 -74.472656 65.5625 -68.203125 L 65.5625 -75.40625 L 91.578125 -75.40625 L 91.578125 0 L 65.859375 0 L 65.859375 -8.53125 L 65.5625 -8.53125 C 59.09375 -1.375 50.859375 2.203125 40.859375 2.203125 C 29.984375 2.203125 21.015625 -1.640625 13.953125 -9.328125 Z M 36.078125 -50.421875 C 32.703125 -47.085938 31.015625 -42.820312 31.015625 -37.625 C 31.015625 -32.4375 32.628906 -28.195312 35.859375 -24.90625 C 39.097656 -21.625 43.363281 -19.984375 48.65625 -19.984375 C 53.75 -19.984375 57.9375 -21.648438 61.21875 -24.984375 C 64.507812 -28.316406 66.15625 -32.53125 66.15625 -37.625 C 66.15625 -42.820312 64.460938 -47.085938 61.078125 -50.421875 C 57.691406 -53.753906 53.550781 -55.421875 48.65625 -55.421875 C 43.65625 -55.421875 39.460938 -53.753906 36.078125 -50.421875 Z M 36.078125 -50.421875" transform="translate(938.369 681.75)"/></g></g></g></svg>